<svg width="200" height="200" viewBox="0 0 200 200" fill="none" xmlns="http://www.w3.org/2000/svg">
<rect width="200" height="200" fill="#050505"/>
<path d="M100 20C120 20 140 40 140 60C140 80 120 100 100 100C80 100 60 120 60 140C60 160 80 180 100 180" stroke="#00FF41" stroke-width="8" stroke-linecap="round"/>
<path d="M100 20C80 20 60 40 60 60C60 80 80 100 100 100C120 100 140 120 140 140C140 160 120 180 100 180" stroke="#FF0055" stroke-width="8" stroke-linecap="round"/>
<circle cx="100" cy="100" r="10" fill="white"/>
<defs>
<filter id="glow" x="0" y="0" width="200" height="200" filterUnits="userSpaceOnUse" color-interpolation-filters="sRGB">
<feFlood flood-opacity="0" result="BackgroundImageFix"/>
<feColorMatrix in="SourceAlpha" type="matrix" values="0 0 0 0 0 0 0 0 0 0 0 0 0 0 0 0 0 0 127 0" result="hardAlpha"/>
<feOffset/>
<feGaussianBlur stdDeviation="5"/>
<feComposite in2="hardAlpha" operator="out"/>
<feColorMatrix type="matrix" values="0 0 0 0 1 0 0 0 0 1 0 0 0 0 1 0 0 0 0.5 0"/>
<feBlend mode="normal" in2="BackgroundImageFix" result="effect1_dropShadow"/>
<feBlend mode="normal" in="SourceGraphic" in2="effect1_dropShadow" result="shape"/>
</filter>
</defs>
</svg>
